# xmcd
#
# Track frame offsets:
#	150
#	23720
#	40082
#	57882
#
# Disc length: 988 seconds
#
# Revision: 0
# Processed by: cddbd v1.5.1PL2 Copyright (c) Steve Scherf et al.
# Submitted via: audiograbber 1.83.01
#
DISCID=2703da04
DTITLE=Steve Earle - Transcendental Blues - Bonus Live CD
DYEAR=2000
DGENRE=Country
TTITLE0=Copperhead Road (live)
TTITLE1=The Galway Girl (live)
TTITLE2=Steve's Last Ramble (live)
TTITLE3=I Feel Alright (live)
EXTD=
EXTT0=
EXTT1=
EXTT2=
EXTT3=
PLAYORDER=
